<svg width="48" height="48" viewBox="0 0 48 48" fill="none" xmlns="http://www.w3.org/2000/svg">
<path d="M12.5 42H35.5C39.09 42 42 39.09 42 35.5V12.5C42 8.91 39.09 6 35.5 6H12.5C8.91 6 6 8.91 6 12.5V35.5C6 39.09 8.91 42 12.5 42Z" fill="#00C300"/>
<path d="M37.1134 22.4173C37.1134 16.5523 31.2334 11.7803 24.0064 11.7803C16.7794 11.7803 10.8984 16.5523 10.8984 22.4173C10.8984 27.6753 15.5614 32.0793 21.8604 32.9123C22.2874 33.0043 22.8684 33.1943 23.0154 33.5583C23.1474 33.8893 23.1014 34.4083 23.0574 34.7433C23.0574 34.7433 22.9044 35.6683 22.8704 35.8653C22.8134 36.1963 22.6074 37.1613 24.0054 36.5723C25.4044 35.9833 31.5534 32.1273 34.3034 28.9613H34.3024C36.2034 26.8793 37.1134 24.7643 37.1134 22.4173ZM18.8754 25.9073H16.2714C15.8924 25.9073 15.5844 25.5993 15.5844 25.2193V20.0103C15.5844 19.6313 15.8924 19.3233 16.2714 19.3233C16.6504 19.3233 16.9584 19.6313 16.9584 20.0103V24.5313H18.8754C19.2544 24.5313 19.5624 24.8393 19.5624 25.2183C19.5624 25.5983 19.2544 25.9073 18.8754 25.9073ZM21.5684 25.2193C21.5684 25.5983 21.2604 25.9073 20.8814 25.9073C20.5024 25.9073 20.1944 25.5993 20.1944 25.2193V20.0103C20.1944 19.6313 20.5024 19.3233 20.8814 19.3233C21.2604 19.3233 21.5684 19.6313 21.5684 20.0103V25.2193ZM27.8384 25.2193C27.8384 25.5163 27.6504 25.7783 27.3684 25.8713C27.2974 25.8953 27.2234 25.9073 27.1504 25.9073C26.9354 25.9073 26.7304 25.8043 26.6014 25.6323L23.9324 21.9973V25.2193C23.9324 25.5983 23.6244 25.9073 23.2444 25.9073C22.8654 25.9073 22.5564 25.5993 22.5564 25.2193V20.0103C22.5564 19.7143 22.7454 19.4523 23.0264 19.3583C23.0974 19.3343 23.1704 19.3233 23.2444 19.3233C23.4584 19.3233 23.6644 19.4263 23.7934 19.5983L26.4634 23.2333V20.0103C26.4634 19.6313 26.7724 19.3233 27.1514 19.3233C27.5304 19.3233 27.8384 19.6313 27.8384 20.0103V25.2193ZM32.0524 21.9273C32.4314 21.9273 32.7404 22.2353 32.7404 22.6153C32.7404 22.9943 32.4324 23.3023 32.0524 23.3023H30.1354V24.5323H32.0524C32.4314 24.5323 32.7404 24.8403 32.7404 25.2193C32.7404 25.5983 32.4314 25.9073 32.0524 25.9073H29.4484C29.0704 25.9073 28.7614 25.5993 28.7614 25.2193V22.6163V22.6143V20.0133C28.7614 20.0123 28.7614 20.0123 28.7614 20.0113C28.7614 19.6323 29.0694 19.3243 29.4484 19.3243H32.0524C32.4314 19.3243 32.7404 19.6323 32.7404 20.0113C32.7404 20.3903 32.4324 20.6983 32.0524 20.6983H30.1354V21.9283L32.0524 21.9273Z" fill="white"/>
</svg>
