<svg xmlns="http://www.w3.org/2000/svg" xmlns:xlink="http://www.w3.org/1999/xlink" width="136" height="40" viewBox="0 0 136 40">
    <defs>
        <path id="5sa7d8w88a" d="M0 39.747L135.364 39.747 135.364 0 0 0z"/>
    </defs>
    <g fill="none" fill-rule="evenodd">
        <g>
            <g>
                <g transform="translate(-286.000000, -1656.000000) translate(80.000000, 1656.000000) translate(206.000000, 0.000000)">
                    <path fill="#F9BF00" d="M20.044 8.254c-1.362 0-2.466 1.133-2.466 2.532s1.104 2.53 2.466 2.53 2.466-1.131 2.466-2.53c0-1.4-1.104-2.532-2.466-2.532"/>
                    <path fill="#231916" d="M0 18.047L2.041 18.047 2.041 28.321 5.476 28.321 5.476 18.047 7.515 18.047 7.515 15.467 0 15.467zM13.083 24.94c0 .64-.039 1.036-.115 1.185-.078.15-.243.222-.499.222-.27 0-.448-.095-.54-.284-.088-.19-.134-.617-.134-1.278 0-.582.052-1.024.156-1.33.103-.308.482-.688 1.132-1.145v2.63zm2.608-8.852c-.7-.465-1.736-.698-3.113-.698-1.149 0-2.083.206-2.802.617-.719.41-1.198.882-1.435 1.418-.24.536-.359 1.295-.359 2.28v.86h3.813v-1.333c0-.718.034-1.162.1-1.33.067-.17.239-.252.514-.252.241 0 .413.1.517.303.104.204.157.637.157 1.3 0 .539-.048.892-.141 1.066-.094.171-.808.507-2.143 1.001-1.246.462-2.028.867-2.344 1.214-.315.348-.473.998-.473 1.947v1.043c0 1.29.297 2.124.89 2.506.594.382 1.244.575 1.955.575.544 0 1.01-.115 1.403-.344.392-.229.712-.572.96-1.028v1.123h3.973V21.96c0-2.101-.071-3.486-.212-4.163-.14-.675-.561-1.245-1.26-1.71zM41.435 24.812c0 .642-.039 1.037-.117 1.187-.076.148-.242.221-.498.221-.268 0-.447-.093-.538-.285-.09-.188-.135-.614-.135-1.277 0-.58.051-1.023.155-1.33.104-.307.482-.688 1.133-1.144v2.628zm2.608-8.85c-.698-.465-1.736-.698-3.113-.698-1.15 0-2.083.206-2.803.616-.718.411-1.198.883-1.436 1.418-.237.535-.357 1.296-.357 2.281v.862h3.813v-1.336c0-.718.033-1.161.1-1.33.067-.168.238-.252.513-.252.242 0 .414.1.518.304.104.204.157.636.157 1.298 0 .54-.048.895-.142 1.066-.093.173-.808.508-2.143 1.003-1.246.461-2.028.866-2.343 1.213-.315.349-.473.997-.473 1.949v1.042c0 1.289.297 2.125.891 2.507.592.38 1.244.574 1.953.574.543 0 1.011-.115 1.404-.344.392-.229.71-.572.96-1.029v1.123h3.973v-6.395c0-2.1-.072-3.487-.212-4.163-.142-.675-.561-1.244-1.26-1.708z"/>
                    <mask id="n3g36uf4zb" fill="#fff">
                        <use xlink:href="#5sa7d8w88a"/>
                    </mask>
                    <path fill="#231916" d="M18.326 28.321L21.761 28.321 21.761 15.467 18.326 15.467zM32.594 15.467c-.436 2.972-.753 6.023-.954 9.155l-.413-4.92-.355-4.235h-3.559c-.502 3.634-.823 6.583-.96 8.845l-.35-4.365-.362-4.48h-3.356l1.55 12.854h4.266l.962-6.765c.323 2.532.674 4.787 1.054 6.765h4.291l1.541-12.854h-3.355zM51.312 21.252L49.38 15.467 46.507 15.467 46.507 28.321 49.38 28.321 49.38 22.474 51.179 28.321 54.183 28.321 54.183 15.467 51.312 15.467zM97.665 19.875c-.171 11.159-8.779 19.696-19.92 19.872C66.61 39.567 58 31.051 57.827 19.875 58 8.702 66.604.182 77.746 0 88.883.177 97.49 8.71 97.665 19.875" mask="url(#n3g36uf4zb)"/>
                    <path fill="#231916" d="M57.826 19.875c.036-2.259.42-4.406 1.097-6.402H55.65v2.048h-.885v2.078h.885v6.659c0 1.311.039 2.141.114 2.492.074.351.263.664.567.937.305.272.658.447 1.057.522.385.07 1.018.107 1.895.11l.107.002h.35c-1.186-2.542-1.866-5.392-1.914-8.446M98.571 17.295c-.273-.636-.738-1.153-1.377-1.563.287 1.33.448 2.715.47 4.143-.01.721-.059 1.433-.138 2.13h1.497v-1.748c0-1.271-.151-2.26-.452-2.962M95.682 28.47c.36-.065.689-.15.978-.27.594-.249 1.083-.62 1.469-1.115.387-.493.633-.959.736-1.396.107-.439.158-1.061.158-1.873v-.968H97.41c-.31 1.996-.9 3.884-1.729 5.622" mask="url(#n3g36uf4zb)"/>
                    <path fill="#F9BF00" d="M63.506 29.865c-.239-.65-.453-1.29-.652-2.031-1.647-.547-1.062-.413-1.171-.59-.068-.107-.31-.58-.532-1.502-.542-2.528-.763-5.186-.59-7.978.364-.042.956-.083 1.412-.12.058-.892.126-1.678.248-2.528-.463.089-.96.176-1.32.26.115-.777.399-2.158.562-2.884-1.247.292-2.531.86-2.531.86-.33.634-1.204 4.437-1.227 6.462.059 3.275.551 5.798 2.04 8.397.563.88 3.201 1.427 3.76 1.654" mask="url(#n3g36uf4zb)"/>
                    <path fill="#F9BF00" d="M65.778 16.469c.104-.813.216-1.547.354-2.317-1.27.16-2.268.337-3.204.508-.731 5.38-.125 11.275 1.295 15.36.89.344 1.842.654 3.033.952-.486-1.704-.868-3.611-1.133-5.942-.186-1.72-.186-2.796-.134-3.303.068-.505.243-.862.605-1.147.373-.28.892-.417 1.751-.408-.015-2.335.084-4.475.283-6.62-1.256.276-2.135 1.15-2.85 2.917M75.046 29.512c-.09.185-.256.255-.564.255-.324-.027-.52-.146-.649-.397-.117-.256-.215-.754-.269-1.693-.053-.82-.008-1.43.091-1.887.138-.467.521-.968 1.346-1.698.028 1.396.066 2.616.111 3.854.035.913.007 1.367-.066 1.566m3.206-15.34c-.918-.72-2.123-1.023-3.842-.988-1.43.067-2.455.4-3.336 1.055-.872.672-1.384 1.36-1.697 2.197-.289.843-.451 1.933-.45 3.496-.001.443.003.848.015 1.294 1.385.03 2.795.058 4.405.075-.005-.72-.01-1.41-.008-2.131-.012-1.171.066-1.815.144-2.097.1-.273.286-.405.647-.41.309 0 .518.149.645.465.121.325.18.978.183 2.09-.011.876-.06 1.403-.174 1.696-.153.28-.996.804-2.613 1.583-1.505.706-2.264 1.234-2.596 1.728-.32.514-.41 1.387-.269 2.707.066.475.107.922.165 1.377.231 1.693.696 2.524 1.356 3.043.706.496 1.333.77 2.103.843.58.07 1.033-.005 1.46-.225.41-.216.72-.548.985-1.091.027.46.05.863.08 1.262 1.488.08 2.897.076 4.397.023.126-2.31.217-5.144.264-8.583.04-3.406-.07-5.602-.255-6.716-.201-1.125-.712-1.939-1.61-2.693M86.974 27.185c-.126.962-.252 1.486-.376 1.718-.137.242-.308.361-.592.404-.242.03-.393-.044-.443-.232-.07-.204-.05-.586.04-1.281.32-2.834.488-5.904.443-9.21.003-.8.025-1.246.108-1.472.102-.22.252-.307.536-.303.278.014.47.123.558.377.103.243.148.69.174 1.418.05 3.065-.123 5.905-.448 8.581m-.756-19.41c.466 2.02.833 4.381 1.05 7.273-.418-.55-.842-.92-1.344-1.226-.507-.29-1.025-.433-1.628-.488-.806-.03-1.427.14-2.018.585-.59.471-.932.969-1.099 1.612-.152.65-.21 1.677-.213 3.308.018 3.31-.052 6.37-.187 9.177-.058 1.325-.03 2.096.087 2.593.13.508.418.853.923 1.17.507.302 1.043.379 1.741.313.516-.084.968-.221 1.474-.49.494-.277.948-.623 1.434-1.129-.067.347-.131.645-.214.975 1.367-.25 2.488-.523 3.562-.843 1.844-5.928 1.839-16.079-.01-21.983-1.075-.33-2.202-.598-3.558-.847M94.84 17.785c0-.248.346-.383.562-.372.3.016.357.17.42.399.073.224.129.69.147 1.466.008.366 0 .717-.01 1.08-.386.147-.836.126-1.124.142.014-.388.034-.85.012-1.237-.012-.882-.043-1.276-.008-1.478m.751 5.878c-.108.631-.22 1.19-.368 1.784-.172.682-.32 1.084-.447 1.336-.122.237-.392.395-.568.466-.145.06-.225.019-.219-.129-.01-.154.101-.494.246-1.14.264-1.011.323-1.985.448-3.098h.122c.67-.115 1.753-.413 2.672-.837.146-.858.106-1.463.114-2.36-.006-.928-.058-2.07-.207-2.945-.2-1.4-1.235-1.86-2.142-2-.58-.089-1.375-.003-1.896.324-.515.338-.858.866-1.113 1.714-.225.859-.308 1.985-.342 3.56-.04 1.748-.205 3.317-.44 4.939-.214 1.227-.32 2.003-.338 2.55-.005.54.068.934.248 1.283.184.33.456.495.866.536.753.094 2.314-.202 3.282-1.165.967-.962 1.498-3.582 1.933-5.471-.174.06-1.215.536-1.85.653" mask="url(#n3g36uf4zb)"/>
                    <path fill="#231916" d="M100.666 27.976L103.518 27.976 103.518 24.891 100.666 24.891zM112.254 20.254h-3.562v-1.43c0-.499-.04-.837-.122-1.015-.08-.177-.23-.266-.448-.266-.219 0-.365.078-.44.234-.075.155-.112.504-.112 1.047v5.852c0 .443.056.775.168.996.112.221.277.332.496.332.255 0 .428-.115.519-.346.09-.23.135-.667.135-1.31v-1.476h3.366c-.006.99-.042 1.734-.108 2.23-.065.495-.274 1.003-.626 1.523-.352.521-.812.914-1.379 1.179s-1.268.397-2.104.397c-1.065 0-1.91-.182-2.533-.547-.624-.364-1.064-.876-1.323-1.533-.259-.658-.388-1.591-.388-2.8v-3.525c0-1.053.106-1.848.318-2.384.212-.536.664-1.015 1.355-1.435.692-.421 1.534-.631 2.525-.631.984 0 1.826.209 2.524.626.698.418 1.162.944 1.393 1.58.23.636.346 1.537.346 2.702M117.512 18.992c0-.636-.034-1.036-.103-1.201-.069-.166-.215-.248-.44-.248-.224 0-.373.082-.448.248-.075.165-.113.565-.113 1.201v5.6c0 .586.038.968.113 1.145.075.178.221.267.44.267.224 0 .372-.081.443-.243.072-.162.108-.511.108-1.047v-5.722zm3.777.935v3.038c0 1.116-.056 1.934-.168 2.455-.113.52-.353 1.006-.72 1.458-.368.452-.84.785-1.417 1-.576.215-1.238.323-1.986.323-.836 0-1.543-.092-2.123-.276-.58-.184-1.03-.461-1.35-.832-.321-.37-.55-.82-.688-1.346-.137-.527-.205-1.317-.205-2.37v-3.179c0-1.153.124-2.054.373-2.702.25-.648.699-1.169 1.347-1.561.648-.393 1.477-.59 2.487-.59.847 0 1.575.127 2.183.38.608.252 1.076.58 1.407.986.33.405.556.822.678 1.253.121.43.182 1.084.182 1.963zM125.63 15.57l-.065 1.18c.293-.468.642-.819 1.048-1.053.405-.234.866-.351 1.383-.351 1.01 0 1.805.468 2.384 1.404.318-.468.676-.819 1.076-1.053.398-.234.84-.351 1.327-.351.642 0 1.173.156 1.594.467.42.312.69.694.809 1.146.118.451.177 1.185.177 2.201v8.816H131.7V19.89c0-1.059-.037-1.715-.108-1.968-.072-.252-.238-.378-.5-.378-.268 0-.441.125-.52.374-.077.25-.116.906-.116 1.972v8.087h-3.665v-7.881c0-1.215-.03-1.945-.089-2.188-.059-.243-.222-.364-.49-.364-.169 0-.312.064-.43.191-.119.128-.185.284-.197.468-.012.184-.019.575-.019 1.173v8.601h-3.664V15.57h3.73z" mask="url(#n3g36uf4zb)"/>
                </g>
            </g>
        </g>
    </g>
</svg>
