<svg xmlns="http://www.w3.org/2000/svg" width="191" height="40" viewBox="0 0 191 40">
    <g fill="none" fill-rule="evenodd">
        <g fill-rule="nonzero">
            <g>
                <path fill="#F5AB15" d="M21.841 0L6.433 0 0 19.433 6.539 19.433 7.327 11.192 16.22 11.192z" transform="translate(-80.000000, -1656.000000) translate(80.000000, 1656.000000)"/>
                <path fill="#773B8F" d="M16.22 11.192L12.082 19.433 6.539 19.433 4.596 39.841 24.718 11.192z" transform="translate(-80.000000, -1656.000000) translate(80.000000, 1656.000000)"/>
                <path fill="#EA5514" d="M7.327 11.192L6.539 19.433 12.082 19.433 16.22 11.192z" transform="translate(-80.000000, -1656.000000) translate(80.000000, 1656.000000)"/>
                <path fill="#773B8F" d="M51.76 29.751l-3.364 3.065c-1.098-1.35-1.876-2.93-2.274-4.624-1.961 1.859-4.207 3.393-6.653 4.543l-.408-1.02c2.536-1.62 4.779-3.656 6.633-6.025-.14-2.472.106-4.951.73-7.347-.696.767-1.436 1.493-2.216 2.175l-.494-.457-.816 2.474h-5.514l.38.081c-.286.376-.642.817-1.03 1.266h7.099l-.51 1.559H41.17c-.684 1.21-1.564 2.3-2.604 3.224.741.304 1.463.654 2.16 1.05l-2.45 2.554c-.715-.638-1.463-1.24-2.24-1.804-2.735 1.444-5.763 2.246-8.853 2.343l.15-1.224c2.43-.281 4.775-1.068 6.882-2.31-.47-.298-.971-.568-1.494-.862-.55.617-1.073 1.155-1.481 1.584l-2.09-1.102c.718-.723 1.955-2.04 3.171-3.465h-3.138l.506-1.56h3.95c.372-.485.727-.914 1.058-1.347h-3.551l1.506-4.563h4.408l.343-1.049h-4.053l.898-2.771h-1.694l.506-1.539h1.694l.898-2.771h4.037l.6-1.853h2.959l-.604 1.853h4.082l-.898 2.771h1.518l-.498 1.53h-1.53l-.899 2.772H40.34L40 17.959h4.384l-.335 1.02c2.249-3.118 4.294-7.346 5.865-11.106l3.323.458c-.885 1.784-1.899 3.501-3.033 5.138h6.025l-.523 1.633h-1.588c-1.28 3.7-3.135 7.175-5.498 10.298.707 1.668 1.78 3.155 3.14 4.351zm-16.368-4.327c-.486.592-1.029 1.18-1.563 1.747.755.16 1.547.376 2.302.617.747-.703 1.402-1.497 1.95-2.364h-2.69zm-1.02-4.383h1.665l.514-1.588h-1.665l-.515 1.588zm3.526-5.645l.408-1.265h-1.42l-.408 1.265h1.42zm-.514-2.796h1.424l.408-1.294H37.8l-.416 1.294zm3.792 6.853H39.51l-.514 1.588h1.665l.515-1.588zm-.36-4.057h1.453l.409-1.265h-1.454l-.408 1.265zm.91-2.796h1.454l.408-1.294h-1.453l-.408 1.294zm6.205 9.706c1.238-2.306 2.272-4.717 3.09-7.204h-1.96c-.24.322-.481.645-.739.943-.424 2.058-.562 4.165-.408 6.261h.017zM101.465 32.171c-2.481.107-4.918.082-7.098 0-3.228-.159-3.612-.816-2.718-3.547l.286-.89h-4.14l-.505 1.56h-3.094l2.971-9.139h17.853l-2.449 7.58h-7.273l-.139.428c-.273.817-.15 1.225 1.139 1.29 1.775.078 3.584.053 5.608-.057 1.123-.053 1.727-.67 2.71-3.788h1.372c-.315 3.955-1 6.404-4.523 6.563zm-12.35-14.787H85.97l1.784-5.51h9.412l.437-1.347h-7.808l.522-1.613h19.225l-.523 1.613h-7.959l-.437 1.346h9.519l-1.792 5.51h-3.2l1.265-3.897H100l-1.96 6.049h-3.224l1.964-6.066h-6.396l-1.27 3.915zm3.31 8.845l.506-1.56h-4.14l-.505 1.56h4.138zm-3.143-3.066h4.138l.458-1.424h-4.135l-.461 1.424zm.559-5.78h5.004l-.465 1.425h-4.992l.453-1.424zm5.428-1.318h-5l.462-1.424h5.004l-.466 1.424zm5.192 8.604h-4.167l-.506 1.56h4.167l.506-1.56zm.951-2.93h-4.167l-.461 1.424h4.167l.461-1.424zm-1.963-4.384h5.04l-.477 1.42h-5.024l.461-1.42zm5.857-2.714l-.465 1.424h-4.972l.462-1.424h4.975zM137.371 12.6h-6.424l1.249.535c-1.108 1.127-2.307 2.162-3.584 3.094h6.29l-4.375 13.469c-1.066 3.265-4.172 3.898-8.086 2.122l.706-1.424c3.437.35 3.767.245 4.282-1.343l2.212-6.804h-2.474c-3.012 0-3.485-.535-2.796-2.661l.551-1.694h-1.693c-1.066 2.286-3.343 4.082-6.013 5.11h10.323l-1.976 6.074h-10.35l1.975-6.074c-.682.272-1.39.478-2.11.616l-2.96 9.115h-3.334l5.363-16.506h5.673c-.142-1.099-.344-2.189-.604-3.266l.547-.347h-5.943l.543-1.67h11.588c-.984-.794-2.009-1.538-3.07-2.228l.87-1.265c2.008.226 3.965.777 5.796 1.633l-1.633 1.881h10.004l-.547 1.633zm-17.142 5.306h-3.266l-1.371 4.135c2.494-1.053 3.73-2.041 4.628-4.147l.009.012zm-1.453 9.612h4.273l.951-2.93h-4.29l-.934 2.93zM128.894 12.6H121.4c.79.822 1.408 1.793 1.816 2.857l-1.583.772h4.783c.882-1.167 1.704-2.378 2.462-3.629h.016zm2.175 5.306h-3.359l-.363 1.037c-.253.78-.061 1.102 1.012 1.102h1.992l.718-2.139zM148.498 30.237h9.09l-.523 1.632H135.51l.523-1.632h9.008l.935-2.89h-4.22l.407-1.29c-2.146 1.293-4.446 2.313-6.845 3.037l-.13-1.339c3.307-1.504 6.319-3.587 8.894-6.15h-6.123l.535-1.634h5.216l2.498-7.69h-4.106l.53-1.632h4.115l.873-2.69h3.2l-.873 2.69h6.16l.873-2.69h3.2l-.874 2.69h4.327l-.531 1.633h-4.326l-2.498 7.69h5.404l-.535 1.632h-6.992c1.45 1.829 3.465 3.229 6.396 4.143l-2.571 3.118c-1.523-.637-2.82-1.715-3.727-3.094l-.506 1.576h-4.302l-.947 2.89zm-1.045-7.45h3.465l-.959 2.96h4.274c-.862-1.258-1.49-2.662-1.853-4.143h-4.625c-1.495 1.62-3.216 3.015-5.11 4.143h3.845l.963-2.96zm-.539-2.82h6.147l.527-1.6h-6.155l-.519 1.6zm1.025-3.147h6.155l.498-1.534h-6.155l-.498 1.534zm1.004-3.093h6.159l.47-1.45h-6.156l-.473 1.45zM173.086 23.086l.224 1.29c-3.31 2.164-6.843 3.966-10.539 5.375l-.26-3.412c.954-.217 2.273-.539 3.73-.972l2.881-8.869h-3l.531-1.633h2.984l2.04-6.29h3.266l-2.041 6.29h2.878l-.531 1.633h-2.878l-2.514 7.755c1.119-.388 2.216-.792 3.229-1.167zm8.714 9.004c-2.22.149-4.449.149-6.67 0-2.975-.188-3.865-.751-2.828-3.951l2.918-8.98-2.493.817v-1.633c.995-.323 2.04-.67 3.077-1.02l2.216-6.83h3.204l-1.816 5.63c.661-.217 1.294-.433 1.963-.674l2.429-7.473h3.012l-2.04 6.26 1.795-.644.817-.857 2.938.816c-1.42 2.96-4.383 8.44-6.265 10.837l-1.2-.282c.996-2.15 2.857-6.91 3.457-8.739-.694.241-1.428.51-2.159.78l-3.322 10.204h-3.009l2.943-9.061c-.645.245-1.306.457-1.967.673l-3.082 9.49c-.408 1.225 0 1.56 1.135 1.633 1.862.134 3.73.134 5.592 0 1.633-.106 1.984-.564 3.673-5.808h1.372c-.894 6.636-1.612 8.6-5.69 8.812zM65.743 14.64l-5.906 18.176h-3.388l4.122-12.69c-1.032.925-2.133 1.77-3.293 2.527l-.625-.967c3.037-2.984 7.04-8.523 9.98-14.168l3.387.992c-1.285 2.138-2.714 4.186-4.277 6.13zm1.78 2.715l1.6-.453c.672 3.673.761 7.43.265 11.13l-3.972.817c.976-3.776 1.68-7.617 2.106-11.494zm6.718-3.547c-.178-1.818-.47-3.623-.878-5.404l1.417-.886C76.2 8.86 77.302 10.505 78 12.331l-2.82 1.477h7.555l-.576 1.776H66.531l.58-1.776h7.13zm3.445 3.037l-4.674 6.804h1.947l-3.702 6.396h-9.906l-.502 1.457h17.339l.518-1.457h-7.143L80 21.273h-2.637l3.523-4.428h-3.2z" transform="translate(-80.000000, -1656.000000) translate(80.000000, 1656.000000)"/>
            </g>
        </g>
    </g>
</svg>
